# xmcd CD database file
#
# Track frame offsets:
#	150
#	17389
#	36794
#	58703
#	79866
#	106259
#	121324
#	137040
#	153893
#	176057
#	197884
#	219736
#
# Disc length: 3272 seconds
#
# Revision: 2
# Processed by: cddbd v1.5.2PL0 Copyright (c) Steve Scherf et al.
# Submitted via: CDex 1.50beta8
#
DISCID=9f0cc60c
DTITLE=Ryszard Rynkowski - Zlote Przeboje
DYEAR=1999
DGENRE=Ballads
TTITLE0=Zwierzenia Ryska czylli jedze pociag
TTITLE1=Inny nie bede
TTITLE2=Wypijmy za bledy
TTITLE3=Nie budzcie marzen ze snu
TTITLE4=Szczesliwej drogi juz czas
TTITLE5=Swobodny blues
TTITLE6=Czemu nie tancze na ulicach
TTITLE7=Bez milosci
TTITLE8=Wszystko juz bylo procz nas
TTITLE9=Wyspa
TTITLE10=Wezcie sobie chlopaki ten kraj
TTITLE11=Dzis nadzieja rodzi sie
EXTD=Platynowa Kolekcja YEAR: 1999
EXTT0=
EXTT1=
EXTT2=
EXTT3=
EXTT4=
EXTT5=
EXTT6=
EXTT7=
EXTT8=
EXTT9=
EXTT10=
EXTT11=
PLAYORDER=
